<mxfile host="app.diagrams.net" agent="Mozilla/5.0 (Windows NT 10.0; Win64; x64) AppleWebKit/537.36 (KHTML, like Gecko) Chrome/136.0.0.0 Safari/537.36" version="27.0.6">
  <diagram name="Purview DLP Policy Management Flow" id="0">
    <mxGraphModel dx="1426" dy="743" grid="1" gridSize="10" guides="1" tooltips="1" connect="1" arrows="1" fold="1" page="1" pageScale="1" pageWidth="850" pageHeight="1100" math="0" shadow="0">
      <root>
        <mxCell id="0" />
        <mxCell id="1" parent="0" />
        <mxCell id="2" value="Security Engineer" style="swimlane" parent="1" vertex="1">
          <mxGeometry width="280" height="1000" as="geometry" />
        </mxCell>
        <mxCell id="5" value="" style="ellipse;whiteSpace=wrap;html=1;aspect=fixed;fillColor=#000000;" parent="2" vertex="1">
          <mxGeometry x="120" y="20" width="30" height="30" as="geometry" />
        </mxCell>
        <mxCell id="6" value="Identify Sensitive Data Types (e.g., PII, PHI, IP)" style="rounded=1;whiteSpace=wrap;html=1;" parent="2" vertex="1">
          <mxGeometry x="35" y="90" width="200" height="60" as="geometry" />
        </mxCell>
        <mxCell id="7" value="Determine Business Rules (e.g., no cross-department sharing)" style="rounded=1;whiteSpace=wrap;html=1;" parent="2" vertex="1">
          <mxGeometry x="35" y="240" width="200" height="60" as="geometry" />
        </mxCell>
        <mxCell id="8" value="Create/Modify DLP Policies in Microsoft Purview" style="rounded=1;whiteSpace=wrap;html=1;" parent="2" vertex="1">
          <mxGeometry x="35" y="370" width="200" height="60" as="geometry" />
        </mxCell>
        <mxCell id="e1" style="endArrow=none;" parent="2" source="5" target="6" edge="1">
          <mxGeometry relative="1" as="geometry" />
        </mxCell>
        <mxCell id="e2" style="endArrow=block;" parent="2" source="6" target="7" edge="1">
          <mxGeometry relative="1" as="geometry" />
        </mxCell>
        <mxCell id="e3" style="endArrow=block;" parent="2" source="7" target="8" edge="1">
          <mxGeometry relative="1" as="geometry" />
        </mxCell>
        <mxCell id="e4" style="endArrow=block;" parent="2" source="8" target="9" edge="1">
          <mxGeometry relative="1" as="geometry" />
        </mxCell>
        <mxCell id="3" value="Microsoft Purview" style="swimlane" parent="1" vertex="1">
          <mxGeometry x="270" width="280" height="1000" as="geometry" />
        </mxCell>
        <mxCell id="9" value="Deploy Policies to Purview DLP Engine" style="rounded=1;whiteSpace=wrap;html=1;" parent="3" vertex="1">
          <mxGeometry x="40" y="70" width="200" height="60" as="geometry" />
        </mxCell>
        <mxCell id="10" value="Inspect Data in Use, At Rest, and In Transit" style="rounded=1;whiteSpace=wrap;html=1;" parent="3" vertex="1">
          <mxGeometry x="40" y="220" width="200" height="60" as="geometry" />
        </mxCell>
        <mxCell id="11" value="Detect Policy Matches (e.g., copy to USB, external share)" style="rounded=1;whiteSpace=wrap;html=1;" parent="3" vertex="1">
          <mxGeometry x="40" y="370" width="200" height="60" as="geometry" />
        </mxCell>
        <mxCell id="e6" style="endArrow=block;" parent="3" source="10" target="11" edge="1">
          <mxGeometry relative="1" as="geometry" />
        </mxCell>
        <mxCell id="AgVHVZ-tYCmr4XsTNrOw-15" value="" style="endArrow=classic;html=1;rounded=0;entryX=0.035;entryY=0.617;entryDx=0;entryDy=0;entryPerimeter=0;" edge="1" parent="3" target="14">
          <mxGeometry width="50" height="50" relative="1" as="geometry">
            <mxPoint x="240" y="400" as="sourcePoint" />
            <mxPoint x="290" y="350" as="targetPoint" />
          </mxGeometry>
        </mxCell>
        <mxCell id="4" value="Data Sources (Teams, SharePoint, Email, Box)" style="swimlane" parent="1" vertex="1">
          <mxGeometry x="560" width="280" height="1000" as="geometry" />
        </mxCell>
        <mxCell id="13" value="User Attempts to Access or Share Data" style="rounded=1;whiteSpace=wrap;html=1;" parent="4" vertex="1">
          <mxGeometry x="40" y="70" width="200" height="60" as="geometry" />
        </mxCell>
        <mxCell id="14" value="DLP Action Enforced" style="rounded=1;whiteSpace=wrap;html=1;" parent="4" vertex="1">
          <mxGeometry x="40" y="290" width="200" height="60" as="geometry" />
        </mxCell>
        <mxCell id="12" value="Trigger Policy Actions (block, warn, notify)" style="rounded=1;whiteSpace=wrap;html=1;" parent="4" vertex="1">
          <mxGeometry x="50" y="470" width="200" height="60" as="geometry" />
        </mxCell>
        <mxCell id="15" value="" style="ellipse;whiteSpace=wrap;html=1;aspect=fixed;fillColor=#000000;" parent="4" vertex="1">
          <mxGeometry x="135" y="600" width="30" height="30" as="geometry" />
        </mxCell>
        <mxCell id="e8" style="endArrow=block;" parent="4" source="12" target="15" edge="1">
          <mxGeometry relative="1" as="geometry" />
        </mxCell>
        <mxCell id="e7" style="endArrow=block;exitX=0.545;exitY=1.017;exitDx=0;exitDy=0;exitPerimeter=0;" parent="4" source="14" target="12" edge="1">
          <mxGeometry relative="1" as="geometry" />
        </mxCell>
        <mxCell id="e9" style="endArrow=block;entryX=1;entryY=0.5;entryDx=0;entryDy=0;" parent="1" source="13" target="10" edge="1">
          <mxGeometry relative="1" as="geometry" />
        </mxCell>
        <mxCell id="AgVHVZ-tYCmr4XsTNrOw-16" style="edgeStyle=orthogonalEdgeStyle;rounded=0;orthogonalLoop=1;jettySize=auto;html=1;exitX=1;exitY=0.5;exitDx=0;exitDy=0;" edge="1" parent="1" source="9" target="13">
          <mxGeometry relative="1" as="geometry" />
        </mxCell>
      </root>
    </mxGraphModel>
  </diagram>
</mxfile>
